<svg width="21" height="22" viewBox="0 0 21 22" fill="none" xmlns="http://www.w3.org/2000/svg">
<g clip-path="url(#clip0_2_3618)">
<path d="M10.4773 7.22145L9.17847 8.5398C9.82302 8.59189 10.365 8.71233 10.8045 8.90113C11.2439 9.08993 11.6231 9.34384 11.9421 9.66285C12.5086 10.2358 12.8862 10.8657 13.075 11.5525C13.2638 12.2393 13.2654 12.9245 13.0798 13.6081C12.8943 14.2917 12.5183 14.9167 11.9519 15.4831L8.75855 18.6667C8.19214 19.2331 7.56714 19.6107 6.88355 19.7995C6.19996 19.9883 5.51474 19.99 4.82789 19.8044C4.14104 19.6189 3.51442 19.2429 2.94801 18.6765C2.3816 18.1036 2.004 17.4737 1.81519 16.7868C1.62639 16.1 1.62639 15.4148 1.81519 14.7312C2.004 14.0476 2.3816 13.4226 2.94801 12.8562L4.86207 10.9421C4.72535 10.6362 4.63909 10.309 4.60328 9.9607C4.56747 9.6124 4.57561 9.27874 4.62769 8.95972L1.7566 11.821C0.98186 12.6023 0.462654 13.4649 0.198982 14.4089C-0.0646897 15.3529 -0.0663173 16.2986 0.194099 17.2458C0.454516 18.1931 0.978606 19.0606 1.76637 19.8484C2.56064 20.6427 3.4314 21.17 4.37867 21.4304C5.32594 21.6908 6.27157 21.6892 7.21558 21.4255C8.15959 21.1619 9.01897 20.6427 9.79371 19.8679L13.1336 16.5183C13.9148 15.7371 14.4372 14.8744 14.7009 13.9304C14.9646 12.9864 14.9662 12.0408 14.7058 11.0935C14.4454 10.1463 13.9181 9.27874 13.1238 8.49097C12.8178 8.17847 12.4565 7.91643 12.0398 7.70484C11.6231 7.49325 11.1023 7.33212 10.4773 7.22145ZM10.2332 15.2683L11.532 13.9499C10.8875 13.8979 10.3455 13.7774 9.90601 13.5886C9.46656 13.3998 9.08733 13.1459 8.76832 12.8269C8.1954 12.254 7.81454 11.6241 7.62574 10.9372C7.43694 10.2504 7.43694 9.5652 7.62574 8.8816C7.81454 8.198 8.19214 7.573 8.75855 7.0066L11.9421 3.823C12.515 3.2566 13.1433 2.87899 13.8269 2.69019C14.5105 2.50139 15.1941 2.49977 15.8777 2.68531C16.5613 2.87086 17.1896 3.25009 17.7625 3.823C18.3289 4.38941 18.7065 5.01604 18.8953 5.70288C19.0841 6.38974 19.0841 7.07496 18.8953 7.75855C18.7065 8.44215 18.3289 9.06715 17.7625 9.63355L15.8484 11.5476C15.9851 11.8601 16.0714 12.1889 16.1072 12.5339C16.143 12.879 16.1349 13.211 16.0828 13.53L18.9539 10.6687C19.7286 9.88746 20.2478 9.02483 20.5115 8.08081C20.7752 7.13681 20.7768 6.19117 20.5164 5.24391C20.2559 4.29664 19.7318 3.42912 18.9441 2.64136C18.1498 1.84709 17.2791 1.31975 16.3318 1.05933C15.3845 0.798917 14.4389 0.800545 13.4949 1.06422C12.5509 1.32789 11.6883 1.85035 10.907 2.6316L7.57691 5.97145C6.79566 6.75269 6.2732 7.61532 6.00953 8.55933C5.74586 9.50335 5.74423 10.449 6.00465 11.3962C6.26506 12.3435 6.79241 13.211 7.58668 13.9988C7.89267 14.3113 8.25399 14.5733 8.67066 14.7849C9.08733 14.9965 9.60817 15.1577 10.2332 15.2683Z" fill="#007AFF"/>
</g>
<defs>
<clipPath id="clip0_2_3618">
<rect width="20.7105" height="20.9253" fill="white" transform="translate(0 0.865234)"/>
</clipPath>
</defs>
</svg>
