<svg width="29" height="17" viewBox="0 0 29 17" fill="none" xmlns="http://www.w3.org/2000/svg">
<g clip-path="url(#clip0_2_3637)">
<path d="M6.41013 12.3105H7.20114C7.1751 12.0567 7.15394 11.7946 7.13767 11.5244C7.12139 11.2542 7.12952 10.9922 7.16208 10.7383H6.51755C5.71677 10.7383 5.00713 10.5641 4.38864 10.2158C3.77015 9.86751 3.28513 9.38411 2.93357 8.76562C2.582 8.14714 2.40622 7.43425 2.40622 6.62695C2.40622 5.82617 2.582 5.11654 2.93357 4.49804C3.28513 3.87956 3.77015 3.39616 4.38864 3.04785C5.00713 2.69955 5.71677 2.52539 6.51755 2.52539H15.1797C15.974 2.52539 16.6803 2.69955 17.2988 3.04785C17.9173 3.39616 18.4039 3.87956 18.7588 4.49804C19.1136 5.11654 19.291 5.82617 19.291 6.62695C19.291 7.43425 19.1152 8.14714 18.7636 8.76562C18.4121 9.38411 17.9254 9.86751 17.3037 10.2158C16.682 10.5641 15.974 10.7383 15.1797 10.7383H11.7519C11.7128 10.8359 11.6884 10.9515 11.6787 11.0849C11.6689 11.2184 11.6738 11.3584 11.6933 11.5048C11.7128 11.6514 11.7454 11.7946 11.791 11.9345C11.8365 12.0745 11.8951 12.1999 11.9668 12.3105H15.2871C16.3938 12.3105 17.3736 12.0697 18.2265 11.5879C19.0794 11.1061 19.7483 10.4388 20.2334 9.58593C20.7184 8.73307 20.9609 7.74675 20.9609 6.62695C20.9609 5.51367 20.7184 4.52897 20.2334 3.67285C19.7483 2.81673 19.0794 2.14942 18.2265 1.6709C17.3736 1.19238 16.3938 0.953125 15.2871 0.953125H6.41013C5.30335 0.953125 4.32354 1.19238 3.47068 1.6709C2.61781 2.14942 1.94886 2.81673 1.46384 3.67285C0.978811 4.52897 0.736298 5.51367 0.736298 6.62695C0.736298 7.74675 0.978811 8.73307 1.46384 9.58593C1.94886 10.4388 2.61781 11.1061 3.47068 11.5879C4.32354 12.0697 5.30335 12.3105 6.41013 12.3105ZM14.2422 16.8515H23.1191C24.2259 16.8515 25.2057 16.6107 26.0586 16.1289C26.9115 15.6471 27.5804 14.9798 28.0654 14.1269C28.5504 13.2741 28.7929 12.2877 28.7929 11.1679C28.7929 10.0547 28.5504 9.06998 28.0654 8.21386C27.5804 7.35774 26.9115 6.69043 26.0586 6.21191C25.2057 5.7334 24.2259 5.49414 23.1191 5.49414H22.3183C22.3509 5.74154 22.3753 6.00195 22.3916 6.27539C22.4079 6.54883 22.3997 6.8125 22.3672 7.0664H23.0019C23.8027 7.0664 24.5123 7.24056 25.1308 7.58886C25.7493 7.93717 26.236 8.42057 26.5908 9.03906C26.9456 9.65755 27.123 10.3672 27.123 11.1679C27.123 11.9753 26.9456 12.6882 26.5908 13.3066C26.236 13.9251 25.7493 14.4085 25.1308 14.7568C24.5123 15.1052 23.8027 15.2793 23.0019 15.2793H14.3496C13.5488 15.2793 12.8392 15.1052 12.2207 14.7568C11.6022 14.4085 11.1171 13.9251 10.7656 13.3066C10.414 12.6882 10.2382 11.9753 10.2382 11.1679C10.2382 10.3672 10.414 9.65755 10.7656 9.03906C11.1171 8.42057 11.6022 7.93717 12.2207 7.58886C12.8392 7.24056 13.5488 7.0664 14.3496 7.0664H17.7773C17.8229 6.9362 17.8473 6.77669 17.8506 6.58789C17.8538 6.39909 17.831 6.20703 17.7822 6.01171C17.7334 5.81641 17.6569 5.64388 17.5527 5.49414H14.2422C13.1354 5.49414 12.1556 5.7334 11.3027 6.21191C10.4498 6.69043 9.78089 7.35774 9.29587 8.21386C8.81084 9.06998 8.56833 10.0547 8.56833 11.1679C8.56833 12.2877 8.81084 13.2741 9.29587 14.1269C9.78089 14.9798 10.4498 15.6471 11.3027 16.1289C12.1556 16.6107 13.1354 16.8515 14.2422 16.8515Z" fill="white" fill-opacity="0.85"/>
</g>
<defs>
<clipPath id="clip0_2_3637">
<rect width="28.0566" height="15.9863" fill="white" transform="translate(0.736298 0.865234)"/>
</clipPath>
</defs>
</svg>
