<svg width="21" height="20" viewBox="0 0 21 20" fill="none" xmlns="http://www.w3.org/2000/svg">
<g clip-path="url(#clip0_2_17378)">
<path d="M16.0653 13.2617C14.2749 13.2617 12.727 12.9199 11.4217 12.2363C10.1164 11.5527 9.11055 10.5794 8.40417 9.31641C7.69779 8.05339 7.3446 6.55274 7.3446 4.81445C7.3446 4.07226 7.39994 3.39193 7.51062 2.77344C7.62129 2.15495 7.76778 1.66992 7.95007 1.31836C8.02168 1.17513 8.06888 1.0612 8.09167 0.976562C8.11446 0.891927 8.12585 0.800781 8.12585 0.703125C8.12585 0.540364 8.05912 0.382487 7.92566 0.229492C7.79219 0.0764973 7.62129 0 7.41296 0C7.3739 0 7.3088 0.00813803 7.21765 0.0244141C7.1265 0.0406901 7.01257 0.0781251 6.87585 0.136719C5.67142 0.625 4.60697 1.3444 3.68249 2.29492C2.75802 3.24544 2.03374 4.34407 1.50964 5.59082C0.985555 6.83757 0.723511 8.14453 0.723511 9.51172C0.723511 10.9961 0.975789 12.3617 1.48035 13.6084C1.9849 14.8551 2.69616 15.9375 3.61413 16.8555C4.5321 17.7734 5.61446 18.4863 6.86121 18.9941C8.10795 19.502 9.47352 19.7559 10.9579 19.7559C12.3706 19.7559 13.6825 19.5199 14.8934 19.0479C16.1043 18.5758 17.1655 17.9004 18.077 17.0215C18.9885 16.1426 19.7079 15.0944 20.2352 13.877C20.2938 13.7467 20.3312 13.6312 20.3475 13.5303C20.3638 13.4294 20.3719 13.3529 20.3719 13.3008C20.3719 13.0989 20.3019 12.9362 20.162 12.8125C20.022 12.6888 19.8771 12.627 19.7274 12.627C19.6493 12.627 19.5744 12.6335 19.5028 12.6465C19.4312 12.6595 19.3368 12.6855 19.2196 12.7246C18.9527 12.8353 18.6483 12.9297 18.3065 13.0078C17.9647 13.0859 17.6034 13.1478 17.2225 13.1934C16.8416 13.2389 16.4559 13.2617 16.0653 13.2617ZM2.25671 9.44336C2.25671 8.43425 2.42435 7.45443 2.75964 6.50391C3.09493 5.55338 3.57019 4.68424 4.18542 3.89648C4.80066 3.10872 5.5282 2.45117 6.36804 1.92383C6.21179 2.37305 6.09298 2.84994 6.0116 3.35449C5.93022 3.85905 5.88953 4.39128 5.88953 4.95117C5.88953 6.98242 6.28504 8.7256 7.07605 10.1807C7.86706 11.6358 9.00639 12.7507 10.494 13.5254C11.9817 14.3001 13.7639 14.6875 15.8407 14.6875C16.342 14.6875 16.8107 14.6566 17.2469 14.5947C17.6831 14.5329 18.103 14.4304 18.5067 14.2871C18.0119 15.1009 17.3788 15.804 16.6073 16.3965C15.8358 16.989 14.9732 17.4431 14.0194 17.7588C13.0656 18.0745 12.0646 18.2324 11.0165 18.2324C9.75347 18.2324 8.5881 18.0159 7.52039 17.583C6.45268 17.1501 5.52494 16.5397 4.73718 15.752C3.94942 14.9642 3.33907 14.0348 2.90613 12.9639C2.47318 11.8929 2.25671 10.7194 2.25671 9.44336Z" fill="black" fill-opacity="0.85"/>
</g>
<defs>
<clipPath id="clip0_2_17378">
<rect width="19.6484" height="19.7949" fill="white" transform="translate(0.723511)"/>
</clipPath>
</defs>
</svg>
