<svg width="27" height="22" viewBox="0 0 27 22" fill="none" xmlns="http://www.w3.org/2000/svg">
<g clip-path="url(#clip0_2_4078)">
<path d="M7.17535 15.3707H8.60113C8.90713 15.3707 9.17243 15.2844 9.39703 15.1119C9.62164 14.9393 9.7665 14.7066 9.8316 14.4137L10.105 13.1734C10.1181 13.1669 10.1343 13.1604 10.1539 13.1539C10.1734 13.1473 10.1897 13.1408 10.2027 13.1344L11.3063 13.7984C11.5536 13.9481 11.8189 14.0067 12.1021 13.9742C12.3853 13.9416 12.6311 13.8212 12.8395 13.6129L13.8355 12.607C14.0569 12.3856 14.1822 12.135 14.2115 11.8551C14.2408 11.5751 14.1773 11.3114 14.0211 11.0641L13.3473 9.99957C13.3473 9.99306 13.3489 9.98493 13.3521 9.97516C13.3553 9.96539 13.3586 9.95726 13.3619 9.95075C13.3651 9.94424 13.3684 9.9361 13.3717 9.92633C13.3749 9.91656 13.3798 9.90517 13.3863 9.89215L14.607 9.59918C14.8934 9.52757 15.1246 9.37946 15.3004 9.15485C15.4762 8.93024 15.5641 8.66494 15.5641 8.35895V7.03082C15.5641 6.72483 15.4778 6.45953 15.3053 6.23492C15.1327 6.01031 14.9 5.8622 14.607 5.79059L13.3863 5.49762C13.3798 5.47809 13.3733 5.46018 13.3668 5.44391C13.3602 5.42763 13.3537 5.40973 13.3473 5.3902L14.0211 4.32575C14.1773 4.07184 14.2408 3.80654 14.2115 3.52985C14.1822 3.25316 14.0569 3.00413 13.8355 2.78278L12.8395 1.78668C12.6311 1.57835 12.3853 1.4579 12.1021 1.42535C11.8189 1.3928 11.5536 1.4514 11.3063 1.60114L10.2027 2.25543C10.1962 2.25543 10.1881 2.2538 10.1783 2.25055C10.1685 2.2473 10.1587 2.24404 10.149 2.24078C10.1392 2.23753 10.1311 2.23427 10.1246 2.23102C10.1181 2.22777 10.1083 2.22614 10.0953 2.22614L9.8316 0.976136C9.77301 0.689677 9.62978 0.460185 9.40191 0.287659C9.17405 0.115133 8.90713 0.0288696 8.60113 0.0288696H7.17535C6.86937 0.0288696 6.60407 0.115133 6.37945 0.287659C6.15485 0.460185 6.00999 0.689677 5.94488 0.976136L5.67144 2.22614C5.65192 2.23265 5.63401 2.23753 5.61773 2.24078C5.60146 2.24404 5.58356 2.24892 5.56402 2.25543L4.47027 1.60114C4.22288 1.4514 3.95758 1.3928 3.67437 1.42535C3.39117 1.4579 3.14541 1.57835 2.93707 1.78668L1.94098 2.78278C1.71962 3.00413 1.59592 3.25478 1.56988 3.53473C1.54384 3.81468 1.60569 4.07835 1.75543 4.32575L2.42926 5.3902C2.42926 5.40322 2.42601 5.41298 2.41949 5.41949C2.41299 5.426 2.4081 5.43414 2.40484 5.44391C2.40159 5.45368 2.39996 5.46344 2.39996 5.47321C2.39996 5.48297 2.39671 5.49111 2.39019 5.49762L1.15973 5.79059C0.873271 5.8622 0.643778 6.01031 0.471252 6.23492C0.298726 6.45953 0.212463 6.72483 0.212463 7.03082V8.35895C0.212463 8.66494 0.298726 8.93024 0.471252 9.15485C0.643778 9.37946 0.873271 9.52757 1.15973 9.59918L2.39019 9.89215C2.39671 9.91168 2.40322 9.92959 2.40973 9.94586C2.41624 9.96214 2.42275 9.98004 2.42926 9.99957L1.75543 11.0641C1.59918 11.3114 1.5357 11.5751 1.565 11.8551C1.5943 12.135 1.71962 12.3856 1.94098 12.607L2.93707 13.6129C3.14541 13.8212 3.38955 13.9416 3.66949 13.9742C3.94944 14.0067 4.21311 13.9481 4.46051 13.7984L5.57379 13.1344C5.58681 13.1408 5.60309 13.1473 5.62262 13.1539C5.64215 13.1604 5.65842 13.1669 5.67144 13.1734L5.94488 14.4137C6.00999 14.7066 6.15485 14.9393 6.37945 15.1119C6.60407 15.2844 6.86937 15.3707 7.17535 15.3707ZM7.3609 14.0035C7.30882 14.0035 7.26975 13.9904 7.24371 13.9644C7.21767 13.9384 7.19814 13.9026 7.18512 13.857L6.76519 12.109C6.53082 12.0569 6.30784 11.9837 6.09625 11.8893C5.88467 11.7949 5.69424 11.6988 5.52496 11.6012L4.00152 12.5289C3.95595 12.5549 3.91363 12.5663 3.87457 12.5631C3.83551 12.5598 3.79971 12.5419 3.76715 12.5094L3.02496 11.7769C2.9859 11.7443 2.96637 11.7102 2.96637 11.6744C2.96637 11.6386 2.97939 11.5979 3.00543 11.5523L3.9234 10.0387C3.86481 9.88891 3.78343 9.70823 3.67926 9.49664C3.5751 9.28505 3.49372 9.05231 3.43512 8.7984L1.71637 8.38825C1.66429 8.37522 1.62685 8.35569 1.60406 8.32965C1.58128 8.30361 1.56988 8.26455 1.56988 8.21246V7.17731C1.56988 7.13174 1.58128 7.0943 1.60406 7.065C1.62685 7.03571 1.66429 7.0178 1.71637 7.01129L3.43512 6.60114C3.49372 6.34072 3.5751 6.10472 3.67926 5.89313C3.78343 5.68154 3.86481 5.50088 3.9234 5.35114L3.00543 3.83746C2.97939 3.79189 2.96637 3.75283 2.96637 3.72028C2.96637 3.68773 2.9859 3.65192 3.02496 3.61285L3.76715 2.8902C3.79971 2.85113 3.83551 2.82997 3.87457 2.82672C3.91363 2.82347 3.95595 2.83486 4.00152 2.8609L5.52496 3.78864C5.69424 3.69749 5.88467 3.60472 6.09625 3.51032C6.30784 3.41591 6.53082 3.33941 6.76519 3.28082L7.18512 1.54254C7.19814 1.49046 7.21767 1.45303 7.24371 1.43024C7.26975 1.40745 7.30882 1.39606 7.3609 1.39606H8.41558C8.46767 1.39606 8.50673 1.40745 8.53277 1.43024C8.55882 1.45303 8.57835 1.49046 8.59137 1.54254L9.01129 3.28082C9.24567 3.33941 9.46865 3.41591 9.68023 3.51032C9.89183 3.60472 10.0823 3.69749 10.2516 3.78864L11.775 2.8609C11.8206 2.83486 11.8613 2.82347 11.8971 2.82672C11.9329 2.82997 11.9703 2.85113 12.0094 2.8902L12.7516 3.61285C12.7906 3.65192 12.8102 3.68773 12.8102 3.72028C12.8102 3.75283 12.7971 3.79189 12.7711 3.83746L11.8531 5.35114C11.9117 5.50088 11.9931 5.68154 12.0973 5.89313C12.2014 6.10472 12.2828 6.34072 12.3414 6.60114L14.0602 7.01129C14.1122 7.0178 14.1497 7.03571 14.1725 7.065C14.1952 7.0943 14.2066 7.13174 14.2066 7.17731V8.21246C14.2066 8.26455 14.1952 8.30361 14.1725 8.32965C14.1497 8.35569 14.1122 8.37522 14.0602 8.38825L12.3414 8.7984C12.2828 9.05231 12.2014 9.28505 12.0973 9.49664C11.9931 9.70823 11.9117 9.88891 11.8531 10.0387L12.7711 11.5523C12.7971 11.5979 12.8102 11.6386 12.8102 11.6744C12.8102 11.7102 12.7906 11.7443 12.7516 11.7769L12.0094 12.5094C11.9703 12.5419 11.9329 12.5598 11.8971 12.5631C11.8613 12.5663 11.8206 12.5549 11.775 12.5289L10.2516 11.6012C10.0823 11.6988 9.89183 11.7949 9.68023 11.8893C9.46865 11.9837 9.24567 12.0569 9.01129 12.109L8.59137 13.857C8.57835 13.9026 8.55882 13.9384 8.53277 13.9644C8.50673 13.9904 8.46767 14.0035 8.41558 14.0035H7.3609ZM7.88824 10.6637C8.42861 10.6637 8.92177 10.5286 9.36773 10.2584C9.8137 9.98818 10.1685 9.63011 10.4322 9.18414C10.6958 8.73818 10.8277 8.24176 10.8277 7.69489C10.8277 7.15452 10.6958 6.66299 10.4322 6.22028C10.1685 5.77757 9.8137 5.42275 9.36773 5.15582C8.92177 4.88889 8.42861 4.75543 7.88824 4.75543C7.34137 4.75543 6.84495 4.88889 6.39898 5.15582C5.95302 5.42275 5.59658 5.77757 5.32965 6.22028C5.06273 6.66299 4.92926 7.15452 4.92926 7.69489C4.92926 8.23525 5.06273 8.73004 5.32965 9.17926C5.59658 9.62848 5.95302 9.98818 6.39898 10.2584C6.84495 10.5286 7.34137 10.6637 7.88824 10.6637ZM7.88824 9.21832C7.6148 9.21832 7.36253 9.14996 7.13141 9.01325C6.90029 8.87653 6.71474 8.69424 6.57476 8.46637C6.43479 8.2385 6.3648 7.98134 6.3648 7.69489C6.3648 7.42145 6.43479 7.1708 6.57476 6.94293C6.71474 6.71507 6.90029 6.53278 7.13141 6.39606C7.36253 6.25934 7.6148 6.19098 7.88824 6.19098C8.16168 6.19098 8.41233 6.25934 8.64019 6.39606C8.86806 6.53278 9.04873 6.71507 9.18219 6.94293C9.31565 7.1708 9.38238 7.42145 9.38238 7.69489C9.38238 7.97484 9.31565 8.23037 9.18219 8.46149C9.04873 8.69261 8.86806 8.87653 8.64019 9.01325C8.41233 9.14996 8.16168 9.21832 7.88824 9.21832ZM19.9879 21.2594H21.1109C21.3843 21.2594 21.6269 21.1845 21.8385 21.0348C22.0501 20.885 22.1786 20.6831 22.2242 20.4293L22.4098 19.443C22.4293 19.443 22.4472 19.4397 22.4635 19.4332C22.4797 19.4266 22.4976 19.4201 22.5172 19.4137L23.3473 19.9312C23.5751 20.0744 23.816 20.1298 24.0699 20.0973C24.3238 20.0647 24.5484 19.9475 24.7437 19.7457L25.5348 18.9547C25.73 18.7528 25.844 18.5249 25.8766 18.2711C25.9091 18.0171 25.8505 17.7762 25.7008 17.5484L25.1734 16.7477C25.1734 16.7411 25.175 16.733 25.1783 16.7232C25.1815 16.7134 25.1848 16.7053 25.1881 16.6988C25.1913 16.6923 25.1946 16.6842 25.1979 16.6744C25.2011 16.6646 25.2059 16.6565 25.2125 16.65L26.1793 16.4449C26.4267 16.3928 26.6269 16.2642 26.7799 16.0592C26.9329 15.8541 27.0094 15.6116 27.0094 15.3316V14.2379C27.0094 13.9644 26.9329 13.7235 26.7799 13.5152C26.6269 13.3068 26.4267 13.1766 26.1793 13.1246L25.2125 12.9293C25.2059 12.9097 25.1994 12.8918 25.193 12.8756C25.1864 12.8593 25.1799 12.8414 25.1734 12.8219L25.7008 12.0211C25.8505 11.7932 25.9091 11.5523 25.8766 11.2984C25.844 11.0445 25.73 10.8199 25.5348 10.6246L24.7437 9.82379C24.5484 9.62197 24.3238 9.50641 24.0699 9.47711C23.816 9.44782 23.5751 9.50153 23.3473 9.63825L22.5172 10.1559C22.5106 10.1559 22.5025 10.1542 22.4928 10.151C22.483 10.1477 22.4748 10.1444 22.4684 10.1412C22.4618 10.1379 22.4537 10.1346 22.4439 10.1314C22.4341 10.1282 22.4228 10.1266 22.4098 10.1266L22.2242 9.14996C22.1786 8.88955 22.0501 8.68447 21.8385 8.53473C21.6269 8.38499 21.3843 8.31012 21.1109 8.31012H19.9879C19.7079 8.31012 19.4622 8.38499 19.2506 8.53473C19.039 8.68447 18.9104 8.88955 18.8648 9.14996L18.6793 10.1266C18.6597 10.133 18.6418 10.1379 18.6256 10.1412C18.6093 10.1444 18.5914 10.1493 18.5719 10.1559L17.7418 9.63825C17.5139 9.50153 17.2746 9.44782 17.024 9.47711C16.7733 9.50641 16.5503 9.62197 16.3551 9.82379L15.5641 10.6246C15.3687 10.8199 15.2532 11.0445 15.2174 11.2984C15.1816 11.5523 15.2385 11.7932 15.3883 12.0211L15.9156 12.8219C15.9156 12.8283 15.9139 12.8365 15.9107 12.8463C15.9075 12.856 15.9042 12.8641 15.901 12.8707C15.8977 12.8772 15.8944 12.8853 15.8912 12.8951C15.8879 12.9049 15.8863 12.9163 15.8863 12.9293L14.9195 13.1246C14.6656 13.1766 14.4622 13.3068 14.3092 13.5152C14.1562 13.7235 14.0797 13.9644 14.0797 14.2379V15.3316C14.0797 15.6116 14.1562 15.8541 14.3092 16.0592C14.4622 16.2642 14.6656 16.3928 14.9195 16.4449L15.8863 16.65C15.8928 16.6695 15.8977 16.6858 15.901 16.6988C15.9042 16.7118 15.9091 16.7281 15.9156 16.7477L15.3883 17.5484C15.2385 17.7762 15.1816 18.0171 15.2174 18.2711C15.2532 18.5249 15.3687 18.7528 15.5641 18.9547L16.3551 19.7457C16.5503 19.9475 16.7733 20.0647 17.024 20.0973C17.2746 20.1298 17.5139 20.0744 17.7418 19.9312L18.5719 19.4137C18.5783 19.4137 18.5865 19.4153 18.5963 19.4185C18.606 19.4217 18.6158 19.425 18.6256 19.4283C18.6353 19.4315 18.6434 19.4348 18.65 19.4381C18.6565 19.4413 18.6663 19.443 18.6793 19.443L18.8648 20.4293C18.9104 20.6831 19.039 20.885 19.2506 21.0348C19.4622 21.1845 19.7079 21.2594 19.9879 21.2594ZM20.2418 19.9605C20.1832 19.9605 20.1392 19.9475 20.11 19.9215C20.0806 19.8954 20.0562 19.8563 20.0367 19.8043L19.6949 18.398C19.3043 18.3134 18.9332 18.1571 18.5816 17.9293L17.3512 18.7008C17.3121 18.7268 17.2698 18.7365 17.2242 18.7301C17.1786 18.7235 17.1363 18.704 17.0973 18.6715L16.6578 18.2125C16.6122 18.1669 16.5878 18.1245 16.5846 18.0855C16.5813 18.0464 16.5927 18.0041 16.6187 17.9586L17.3609 16.7574C17.3218 16.6402 17.2518 16.4823 17.151 16.2838C17.05 16.0852 16.9735 15.8654 16.9215 15.6246L15.525 15.3023C15.4794 15.2958 15.4419 15.2747 15.4127 15.2389C15.3833 15.203 15.3687 15.159 15.3687 15.107V14.4625C15.3687 14.4169 15.3833 14.3762 15.4127 14.3404C15.4419 14.3046 15.4794 14.2802 15.525 14.2672L16.9215 13.9449C16.9735 13.704 17.05 13.4859 17.151 13.2906C17.2518 13.0953 17.3218 12.9358 17.3609 12.8121L16.6187 11.6109C16.5927 11.5718 16.5813 11.5311 16.5846 11.4889C16.5878 11.4465 16.6122 11.4026 16.6578 11.357L17.0973 10.9078C17.1363 10.8687 17.1786 10.8475 17.2242 10.8443C17.2698 10.841 17.3121 10.8524 17.3512 10.8785L18.5816 11.6402C18.9332 11.4188 19.3043 11.2626 19.6949 11.1715L20.0367 9.7652C20.0562 9.71963 20.0806 9.68219 20.11 9.65289C20.1392 9.6236 20.1832 9.60895 20.2418 9.60895H20.8473C20.9059 9.60895 20.9514 9.6236 20.984 9.65289C21.0165 9.68219 21.0393 9.71963 21.0523 9.7652L21.3941 11.1715C21.7912 11.2626 22.1623 11.4188 22.5074 11.6402L23.7379 10.8785C23.7835 10.8524 23.8274 10.841 23.8697 10.8443C23.912 10.8475 23.9527 10.8687 23.9918 10.9078L24.441 11.357C24.48 11.4026 24.5028 11.4465 24.5094 11.4889C24.5158 11.5311 24.5061 11.5718 24.4801 11.6109L23.7281 12.8121C23.7737 12.9358 23.8469 13.0953 23.9479 13.2906C24.0487 13.4859 24.122 13.704 24.1676 13.9449L25.5641 14.2672C25.6161 14.2802 25.6552 14.3046 25.6813 14.3404C25.7073 14.3762 25.7203 14.4169 25.7203 14.4625V15.107C25.7203 15.159 25.7073 15.203 25.6813 15.2389C25.6552 15.2747 25.6161 15.2958 25.5641 15.3023L24.1676 15.6246C24.122 15.8654 24.0487 16.0852 23.9479 16.2838C23.8469 16.4823 23.7737 16.6402 23.7281 16.7574L24.4801 17.9586C24.5061 18.0041 24.5158 18.0464 24.5094 18.0855C24.5028 18.1245 24.48 18.1669 24.441 18.2125L23.9918 18.6715C23.9527 18.704 23.912 18.7235 23.8697 18.7301C23.8274 18.7365 23.7835 18.7268 23.7379 18.7008L22.5074 17.9293C22.1623 18.1571 21.7912 18.3134 21.3941 18.398L21.0523 19.8043C21.0393 19.8563 21.0165 19.8954 20.984 19.9215C20.9514 19.9475 20.9059 19.9605 20.8473 19.9605H20.2418ZM20.5445 17.0797C20.9611 17.0797 21.342 16.9755 21.6871 16.7672C22.0321 16.5588 22.3088 16.2821 22.5172 15.9371C22.7255 15.592 22.8297 15.2079 22.8297 14.7848C22.8297 14.3681 22.7255 13.9872 22.5172 13.6422C22.3088 13.2971 22.0321 13.022 21.6871 12.817C21.342 12.6119 20.9611 12.5094 20.5445 12.5094C20.1213 12.5094 19.7356 12.6119 19.3873 12.817C19.0389 13.022 18.7622 13.2971 18.5572 13.6422C18.3521 13.9872 18.2496 14.3681 18.2496 14.7848C18.2496 15.2014 18.3521 15.5839 18.5572 15.9322C18.7622 16.2805 19.0389 16.5588 19.3873 16.7672C19.7356 16.9755 20.1213 17.0797 20.5445 17.0797ZM20.5445 15.8492C20.2515 15.8492 20.0025 15.745 19.7975 15.5367C19.5923 15.3283 19.4898 15.0777 19.4898 14.7848C19.4898 14.4983 19.5923 14.2541 19.7975 14.0523C20.0025 13.8505 20.2515 13.7496 20.5445 13.7496C20.8245 13.7496 21.067 13.8505 21.2721 14.0523C21.4771 14.2541 21.5797 14.4983 21.5797 14.7848C21.5797 15.0712 21.4771 15.3202 21.2721 15.5318C21.067 15.7434 20.8245 15.8492 20.5445 15.8492Z" fill="black" fill-opacity="0.85"/>
</g>
<defs>
<clipPath id="clip0_2_4078">
<rect width="26.7969" height="21.2402" fill="white" transform="translate(0.212463 0.0288696)"/>
</clipPath>
</defs>
</svg>
