<svg width="24" height="25" viewBox="0 0 24 25" fill="none" xmlns="http://www.w3.org/2000/svg">
<g clip-path="url(#clip0_2_3073)">
<path d="M3.5177 22.9453H20.4122C21.4409 22.9453 22.2091 22.6914 22.7169 22.1836C23.2247 21.6758 23.4786 20.9206 23.4786 19.918V14.1367C23.4786 13.694 23.4412 13.3409 23.3663 13.0772C23.2914 12.8135 23.1433 12.5482 22.922 12.2813L19.8458 8.47265C19.5398 8.10807 19.2713 7.80697 19.0402 7.56933C18.8091 7.33171 18.5779 7.14616 18.3468 7.01269C18.1157 6.87923 17.852 6.78646 17.5558 6.73437C17.2596 6.68229 16.8934 6.65625 16.4572 6.65625H14.5431V8.0332H16.5743C16.9324 8.0332 17.2384 8.08366 17.4923 8.18457C17.7462 8.28548 18.0164 8.51172 18.3029 8.86328L21.4865 12.8477C21.6883 13.1016 21.7583 13.2806 21.6964 13.3848C21.6345 13.4889 21.4702 13.541 21.2033 13.541H14.9825C14.7286 13.541 14.5415 13.6224 14.421 13.7852C14.3006 13.9479 14.2404 14.1302 14.2404 14.332V14.3711C14.2404 14.7487 14.146 15.1149 13.9572 15.4697C13.7684 15.8246 13.5047 16.1175 13.1661 16.3486C12.8276 16.5797 12.4272 16.6953 11.965 16.6953C11.5027 16.6953 11.1023 16.5797 10.7638 16.3486C10.4253 16.1175 10.1632 15.8246 9.97766 15.4697C9.79212 15.1149 9.69934 14.7487 9.69934 14.3711V14.332C9.69934 14.1302 9.63749 13.9479 9.51379 13.7852C9.39009 13.6224 9.20129 13.541 8.94738 13.541H2.74621C2.46627 13.541 2.30025 13.484 2.24817 13.3701C2.19609 13.2562 2.26444 13.082 2.45324 12.8477L5.60754 8.89257C5.90051 8.53451 6.1772 8.30176 6.43762 8.19433C6.69804 8.08691 7.00403 8.0332 7.35559 8.0332H9.3966V6.65625H7.47277C7.03658 6.65625 6.67037 6.68229 6.37414 6.73437C6.07792 6.78646 5.81425 6.87923 5.58313 7.01269C5.35201 7.14616 5.11926 7.33333 4.88488 7.57421C4.65051 7.8151 4.38033 8.12435 4.07434 8.50195L1.00793 12.2813C0.793091 12.5417 0.646607 12.8054 0.568482 13.0723C0.490357 13.3392 0.451294 13.694 0.451294 14.1367V19.918C0.451294 20.9271 0.706828 21.6839 1.2179 22.1885C1.72896 22.693 2.49556 22.9453 3.5177 22.9453ZM3.53723 21.3731C3.04895 21.3731 2.6746 21.2429 2.41418 20.9824C2.15377 20.722 2.02356 20.3379 2.02356 19.8301V14.9766H8.21496C8.29309 15.5821 8.50468 16.124 8.84973 16.6025C9.19479 17.081 9.63587 17.4587 10.173 17.7354C10.7101 18.0121 11.3074 18.1504 11.965 18.1504C12.6291 18.1504 13.2296 18.0121 13.7667 17.7354C14.3038 17.4587 14.7433 17.081 15.0851 16.6025C15.4269 16.124 15.6369 15.5821 15.715 14.9766H21.9064V19.8301C21.9064 20.3379 21.7746 20.722 21.5109 20.9824C21.2472 21.2429 20.8745 21.3731 20.3927 21.3731H3.53723ZM11.965 14.7031C12.1733 14.7031 12.3556 14.6282 12.5118 14.4785C12.6681 14.3288 12.7462 14.1497 12.7462 13.9414V3.91211L12.6779 2.45703L13.3419 3.14062L14.8165 4.72265C14.9532 4.87891 15.1323 4.95703 15.3536 4.95703C15.5555 4.95703 15.7231 4.89193 15.8566 4.76171C15.9901 4.63151 16.0568 4.46875 16.0568 4.27343C16.0568 4.08463 15.9819 3.91211 15.8322 3.75586L12.5314 0.572266C12.4337 0.47461 12.3393 0.40625 12.2482 0.367188C12.1571 0.328125 12.0627 0.308594 11.965 0.308594C11.8673 0.308594 11.7729 0.328125 11.6818 0.367188C11.5907 0.40625 11.4963 0.47461 11.3986 0.572266L8.09777 3.75586C7.94804 3.91211 7.87317 4.08463 7.87317 4.27343C7.87317 4.46875 7.93828 4.63151 8.06848 4.76171C8.19869 4.89193 8.3647 4.95703 8.56652 4.95703C8.79439 4.95703 8.97668 4.87891 9.1134 4.72265L10.588 3.14062L11.2521 2.44726L11.1935 3.91211V13.9414C11.1935 14.1497 11.27 14.3288 11.423 14.4785C11.576 14.6282 11.7567 14.7031 11.965 14.7031Z" fill="#007AFF"/>
</g>
<defs>
<clipPath id="clip0_2_3073">
<rect width="23.0273" height="24.6777" fill="white" transform="translate(0.451294 0.308594)"/>
</clipPath>
</defs>
</svg>
